<svg width="32" height="32" viewBox="0 0 32 32" fill="none" xmlns="http://www.w3.org/2000/svg">
<path d="M16 32C24.8366 32 32 24.8366 32 16C32 7.16344 24.8366 0 16 0C7.16344 0 0 7.16344 0 16C0 24.8366 7.16344 32 16 32Z" fill="white"/>
<rect x="8" y="8" width="16" height="16" fill="white" fill-opacity="0.01"/>
<path fill-rule="evenodd" clip-rule="evenodd" d="M21.2834 15.7449C21.2509 15.6662 21.2026 15.5926 21.1387 15.5286L16.4721 10.862C16.2117 10.6016 15.7896 10.6016 15.5292 10.862C15.2689 11.1223 15.2689 11.5444 15.5292 11.8048L19.0578 15.3334L11.334 15.3334C10.9658 15.3334 10.6673 15.6319 10.6673 16C10.6673 16.3682 10.9658 16.6667 11.334 16.6667L19.0578 16.6667L15.5292 20.1953C15.2689 20.4557 15.2689 20.8778 15.5292 21.1381C15.7896 21.3985 16.2117 21.3985 16.4721 21.1381L21.1387 16.4714C21.2026 16.4075 21.2509 16.3339 21.2834 16.2552C21.316 16.1766 21.334 16.0904 21.334 16C21.334 15.9096 21.316 15.8235 21.2834 15.7449Z" fill="black"/>
</svg>
