<svg width="20" height="20" viewBox="0 0 20 20" fill="none" xmlns="http://www.w3.org/2000/svg">
<rect width="20" height="20" fill="white" fill-opacity="0.01"/>
<path fill-rule="evenodd" clip-rule="evenodd" d="M19.1673 5.8335C19.1673 3.07207 16.9287 0.833496 14.1673 0.833496H5.83398C3.07256 0.833496 0.833984 3.07207 0.833984 5.8335V14.1668C0.833984 16.9283 3.07256 19.1668 5.83398 19.1668H14.1673C16.9287 19.1668 19.1673 16.9283 19.1673 14.1668V5.8335ZM5.83398 2.50016H14.1673C16.0083 2.50016 17.5007 3.99255 17.5007 5.8335V14.1668C17.5007 16.0078 16.0083 17.5002 14.1673 17.5002H5.83398C3.99304 17.5002 2.50065 16.0078 2.50065 14.1668V5.8335C2.50065 3.99255 3.99304 2.50016 5.83398 2.50016ZM14.1583 9.35284C13.8891 7.53724 12.4635 6.11165 10.6479 5.84242C8.8698 5.57875 7.12306 6.4851 6.3149 8.09073C5.50674 9.69635 5.81938 11.6392 7.09043 12.9103C8.36149 14.1813 10.3044 14.494 11.91 13.6858C13.5156 12.8777 14.422 11.1309 14.1583 9.35284ZM7.80363 8.84006C8.28853 7.87668 9.33657 7.33287 10.4034 7.49108C11.4928 7.65261 12.3481 8.50797 12.5097 9.59733C12.6679 10.6642 12.1241 11.7122 11.1607 12.1971C10.1973 12.682 9.03158 12.4944 8.26895 11.7318C7.50632 10.9692 7.31874 9.80343 7.80363 8.84006ZM15.1732 6.00609C14.8478 6.33152 14.3202 6.33152 13.9947 6.00609C13.6693 5.68065 13.6693 5.15301 13.9947 4.82757C14.3202 4.50214 14.8478 4.50214 15.1732 4.82757C15.4987 5.15301 15.4987 5.68065 15.1732 6.00609Z" fill="#7F7F7F"/>
</svg>
