<svg width="129" height="40" viewBox="0 0 129 40" fill="none" xmlns="http://www.w3.org/2000/svg">
<path fill-rule="evenodd" clip-rule="evenodd" d="M89.0527 28.947C87.8859 29.8314 86.4822 29.7274 85.0748 29.2777C84.9392 29.2344 84.8029 29.1926 84.6666 29.1508L84.6658 29.1506C83.7851 28.8807 82.8996 28.6093 82.1635 27.9099C81.8286 27.5916 81.4453 27.6004 81.0811 27.996C80.4904 28.6376 79.7785 29.2206 78.7522 28.8086C78.055 28.5287 77.4404 28.0835 76.9195 27.4693C75.9916 26.3752 75.7748 25.2262 75.8254 24.0369L75.874 23.9676C76.2184 23.476 76.5628 22.9844 76.9143 22.4982C77.8138 21.2544 78.2448 19.8077 78.6749 18.3637L78.6977 18.2873C78.7337 18.1671 78.668 18.0158 78.6023 17.8645L78.6023 17.8644C78.5719 17.7945 78.5416 17.7247 78.5213 17.6579C78.4696 17.6858 78.4138 17.71 78.3579 17.7342L78.3578 17.7342C78.237 17.7865 78.1163 17.8387 78.038 17.9287C77.9172 18.0671 77.7962 18.2054 77.6753 18.3437L77.6702 18.3495L77.6651 18.3553L77.6638 18.3568L77.6632 18.3575C77.3185 18.7515 76.9739 19.1456 76.6322 19.5421C77.1835 17.4391 77.9189 15.4074 78.7006 13.394C79.3648 11.6832 80.0685 9.98971 80.8059 8.31526C81.1269 7.58629 81.4737 6.87073 81.8204 6.15517C82.1651 5.44404 82.5097 4.7329 82.8291 4.00861C83.2471 3.06053 83.6012 2.07819 83.9547 1.09736L83.9548 1.097L84.067 0.785973C84.3444 0.0181737 84.6529 -0.12935 85.4908 0.0964677C86.338 0.324784 86.9625 0.894398 87.5014 1.54142C87.9122 2.0347 88.0666 2.6367 87.8163 3.24199L87.7493 3.40405C87.3826 4.29077 87.0158 5.17766 86.6696 6.07409C86.5795 6.30754 86.5059 6.54923 86.4323 6.79077C86.3362 7.10638 86.2402 7.42172 86.1074 7.71806C85.7869 8.43368 85.4531 9.14258 85.1193 9.85142L85.1192 9.85159L85.1191 9.85182L85.119 9.85211L85.1188 9.85246L85.1187 9.85287L85.1185 9.85324C84.5909 10.9738 84.0634 12.0941 83.5882 13.2406C82.9974 14.6659 82.4784 16.127 81.9595 17.5878L81.9595 17.5878L81.9594 17.588L81.9594 17.5881C81.8053 18.0218 81.6512 18.4555 81.4953 18.8883C81.3557 19.2756 81.2438 19.6751 81.1318 20.0747C81.0804 20.2579 81.0291 20.4411 80.9751 20.6231L81.1791 20.6764C81.5475 20.0886 81.9141 19.4996 82.2806 18.9106L82.2816 18.909L82.2823 18.9079C83.1368 17.5348 83.9912 16.1617 84.8692 14.8054C85.8081 13.3551 87.0846 12.2275 88.4738 11.2332C89.0716 10.8053 89.8207 10.7236 90.5607 10.8931C91.2794 11.0577 92.0039 11.3021 92.6815 11.6244C94.3117 12.3999 94.7177 13.9415 95.0304 15.4601C95.2425 16.4905 95.074 17.4903 94.9069 18.4821C94.8721 18.6885 94.8374 18.8945 94.8062 19.1004C94.4393 21.5245 93.5597 23.7248 92.3451 25.7663C92.1407 26.1102 91.9058 26.4511 91.6163 26.7184L91.4236 26.8961L91.4234 26.8963C90.655 27.6055 89.8845 28.3166 89.0527 28.947ZM62.0222 24.9552C61.5639 23.6504 61.5161 22.1955 61.8187 20.6384C62.3765 17.7698 63.5302 15.1306 65.5079 12.9686C66.2578 12.1487 67.1328 11.4434 68.005 10.7403L68.0054 10.74L68.0054 10.7399C68.2467 10.5455 68.4877 10.3511 68.7259 10.1546C69.2633 9.71152 69.9095 9.72543 70.5591 9.91999C70.7909 9.98943 71.0256 10.0502 71.2602 10.1109L71.2603 10.1109C71.6483 10.2113 72.0361 10.3117 72.4102 10.4513L72.5428 10.5006C73.0979 10.7067 73.6762 10.9214 74.1255 11.2823C75.0085 11.9915 75.14 12.9873 74.8858 14.0782C74.3913 16.1965 73.5189 18.1649 72.6055 20.1169L72.5544 20.2261C72.1668 21.0552 71.7765 21.8902 71.2899 22.6594C70.9143 23.2536 70.4068 23.7776 69.8921 24.2609C69.4774 24.65 68.9786 24.7166 68.3861 24.4947C67.6365 24.2143 66.9724 23.8496 66.4277 23.2643C66.187 23.0059 65.8946 22.6963 65.5693 22.9167C65.3334 23.0765 65.1633 23.4613 65.1237 23.767C65.0405 24.4066 64.9738 25.0733 65.0618 25.7055C65.2315 26.917 65.9115 27.968 67.4494 27.7077C68.7766 27.483 69.8675 26.8769 70.8515 26.0126C72.4933 24.5703 73.8839 22.8912 75.2536 21.1896C75.7025 20.6317 76.1646 20.0846 76.6322 19.5421C76.359 20.5841 76.131 21.6437 75.965 22.7272C75.8974 23.1686 75.8438 23.6054 75.8254 24.0369C75.2089 24.9169 74.5914 25.796 73.9327 26.6424C73.3101 27.4424 72.5813 28.1741 71.8191 28.8413C70.9322 29.618 69.8201 29.799 68.7065 29.7406C67.0971 29.8314 65.753 29.1644 64.5476 28.2684C63.7267 27.6584 63.0909 26.9708 62.6253 26.2175C62.7545 25.7325 62.8543 25.236 62.9541 24.7397L62.9541 24.7394C63.02 24.4119 63.0858 24.0846 63.16 23.7607C63.1778 23.6834 63.1535 23.5961 63.1292 23.5089L63.1292 23.5088L63.1292 23.5088L63.1292 23.5087L63.1291 23.5087L63.1291 23.5086L63.1291 23.5086L63.1291 23.5085C63.1179 23.4681 63.1066 23.4277 63.0996 23.3884C63.0667 23.4071 63.0293 23.4232 62.9918 23.4393C62.9108 23.4741 62.8298 23.509 62.7951 23.5706C62.536 24.0313 62.2787 24.493 62.0222 24.9552ZM50.9591 8.14646L50.9613 8.14612C52.3419 7.93849 53.7225 7.73086 55.104 7.53118C55.2498 7.5102 55.3957 7.4882 55.5418 7.46618L55.5418 7.46617L55.5419 7.46617L55.5419 7.46616L55.5419 7.46616L55.542 7.46615L55.542 7.46615L55.542 7.46614L55.5421 7.46613L55.5421 7.46613C56.2006 7.36683 56.8615 7.26719 57.5221 7.25877C58.3263 7.24799 58.8111 6.8428 59.0914 6.17745C59.5143 5.17257 59.8908 4.14515 60.233 3.10842C60.5505 2.14763 60.7168 1.99329 61.6738 2.25787C61.758 2.28119 61.8426 2.30376 61.9273 2.32635C62.5878 2.50261 63.2516 2.67976 63.7699 3.21914C64.3804 3.8551 64.6926 4.52633 64.4524 5.43714C64.2591 6.17158 64.4456 6.38029 65.1643 6.39989C65.4913 6.4087 65.8186 6.4065 66.1459 6.4043L66.1461 6.4043C66.2923 6.40332 66.4386 6.40234 66.5848 6.40234L66.5838 6.24213C66.8733 6.24213 67.1628 6.24018 67.4522 6.23823C68.2092 6.23313 68.9661 6.22803 69.722 6.25781C70.0304 6.27005 70.4219 6.38568 70.6196 6.60077C71.2397 7.27592 70.9134 8.09658 69.9796 8.23328C69.4911 8.30463 68.9957 8.32797 68.5004 8.35129L68.5003 8.3513L68.5002 8.3513L68.5001 8.35131L68.5 8.35131L68.4998 8.35132L68.4997 8.35132L68.4996 8.35133L68.4995 8.35134L68.4994 8.35134C68.3183 8.35987 68.1372 8.3684 67.9565 8.37928C67.7243 8.3931 67.4921 8.40722 67.2599 8.42134C66.3477 8.47681 65.4356 8.53228 64.5225 8.56938C63.7757 8.59976 63.2678 8.88295 62.9623 9.62865C62.6025 10.5081 62.2244 11.3799 61.8464 12.2517L61.8464 12.2518L61.8463 12.2519L61.8463 12.252L61.8463 12.252L61.8462 12.2521L61.8462 12.2522L61.8462 12.2523L61.8461 12.2524L61.8461 12.2525C60.8121 14.6369 59.7784 17.0208 59.118 19.5589C58.9103 20.3573 58.6241 21.134 58.3376 21.9113L58.3376 21.9113L58.3376 21.9113C58.1401 22.4472 57.9425 22.9834 57.7705 23.527C57.2765 25.0895 56.814 26.6637 56.3834 28.2452C55.959 29.8025 55.5686 31.3695 55.1782 32.936L55.0088 33.6156C54.8348 34.3123 54.6719 35.0144 54.5569 35.7223C54.5296 35.8891 54.5783 36.0683 54.6268 36.2475C54.6489 36.329 54.671 36.4104 54.6859 36.4906C54.7559 36.4541 54.8318 36.4227 54.9077 36.3914L54.9078 36.3914C55.0741 36.3227 55.2404 36.2541 55.3433 36.131C55.7792 35.6097 56.2065 35.0702 56.5554 34.4872C57.6927 32.5872 58.8067 30.6724 59.9044 28.7484C60.4721 27.753 61.0276 26.7502 61.583 25.7475L61.5831 25.7473C61.7294 25.4832 61.8757 25.2192 62.0222 24.9552C62.1761 25.3935 62.3764 25.8149 62.6253 26.2175C62.5427 26.5275 62.4482 26.8327 62.334 27.1301C61.4892 29.3305 60.552 31.4985 59.5631 33.6371C58.9624 34.9365 58.2292 36.1785 57.4902 37.4058C56.8271 38.5077 55.9508 39.3798 54.6714 39.7791C53.874 40.028 53.1475 40.0006 52.4298 39.5768C50.4579 38.4122 49.6111 36.6297 50.0828 34.2505C50.8489 30.3912 51.7556 26.5578 52.9808 22.8161C53.8841 20.0567 54.8488 17.3174 55.8232 14.5825C55.9013 14.3632 55.981 14.1445 56.0619 13.9263C56.3703 13.7062 56.6706 13.4738 56.9684 13.2381L57.5787 12.7522C57.6347 12.7079 57.6548 12.6171 57.6749 12.5265L57.6749 12.5264C57.6841 12.485 57.6932 12.4437 57.7058 12.4068C57.6672 12.3942 57.6272 12.3761 57.5872 12.3579C57.4994 12.3181 57.4115 12.2782 57.3385 12.2971C57.1312 12.3505 56.9342 12.4521 56.7406 12.5519L56.6933 12.5763C56.6442 12.6015 56.5953 12.6269 56.5465 12.6524C56.6552 12.3722 56.7646 12.0922 56.8741 11.8122L56.8754 11.8088C57.1373 11.1392 57.3991 10.4695 57.6501 9.79573C57.9764 8.92068 57.7362 8.65267 56.7966 8.65022C55.6785 8.64748 54.5754 8.7958 53.4725 8.94408L53.4724 8.94408L53.4724 8.94409L53.4723 8.94409L53.4723 8.9441L53.4722 8.94411L53.4721 8.94411L53.4721 8.94412L53.472 8.94412L53.472 8.94413C53.1402 8.98874 52.8084 9.03335 52.4763 9.07384C52.3661 8.94821 52.2255 8.83965 52.0896 8.74642C51.7297 8.49979 51.3513 8.30543 50.9591 8.14646ZM38.4271 26.3764C38.2354 26.021 38.2826 25.671 38.5987 25.241C39.0178 24.6702 39.5141 24.1333 40.0622 23.6898C41.1159 22.837 42.1939 22.0152 43.2718 21.1934C43.6776 20.8841 44.0835 20.5747 44.488 20.2636C44.5661 20.2036 44.6467 20.1466 44.7273 20.0897L44.7273 20.0896L44.7274 20.0895L44.7275 20.0895L44.7276 20.0894L44.7277 20.0893L44.7278 20.0892L44.7279 20.0892L44.728 20.0891L44.7281 20.089L44.7282 20.089L44.7283 20.0889L44.7283 20.0889L44.7283 20.0888L44.7284 20.0888L44.7284 20.0888L44.7284 20.0888L44.7285 20.0887L44.7285 20.0887L44.7285 20.0887L44.7286 20.0886L44.7286 20.0886L44.7286 20.0886C44.8421 20.0084 44.9556 19.9282 45.0622 19.8393C45.6334 19.3612 45.7209 18.9863 45.399 18.3097C45.0912 17.662 44.7818 17.0133 44.4367 16.3857C43.5407 14.7551 43.4203 13.0462 44.0883 11.3412C44.5155 10.251 45.3729 9.42696 46.226 8.6401C46.4005 8.47939 46.5943 8.33584 46.7944 8.20943C47.5237 7.7479 48.2617 7.42747 49.1805 7.62688C49.7929 7.75996 50.3905 7.91603 50.9591 8.14646C50.3722 8.23472 49.7853 8.32299 49.1983 8.41064C49.1538 8.41733 49.106 8.42176 49.0574 8.42628C48.8213 8.44821 48.5652 8.47199 48.5608 8.76536C48.5541 9.16614 48.948 9.20093 49.2438 9.21612C49.7812 9.24404 50.3225 9.24649 50.8605 9.22053C51.4012 9.19399 51.9392 9.1393 52.4763 9.07384C52.5213 9.12513 52.5612 9.17926 52.5937 9.23636C52.7668 9.53964 52.7199 9.83606 52.3516 9.99236C52.2892 10.0183 52.2235 10.0404 52.1573 10.0502C50.8407 10.2422 49.8654 11.1163 48.9621 11.9458C47.647 13.1535 46.8316 14.6919 47.2327 16.6174C47.442 17.6209 47.7644 17.7796 48.6208 17.2627C49.0244 17.0192 49.4197 16.7614 49.8149 16.5038C50.2983 16.1886 50.7816 15.8736 51.2796 15.5846C52.3309 14.9742 53.3954 14.387 54.4599 13.7998L54.46 13.7998L54.4605 13.7995C54.8781 13.5691 55.2958 13.3387 55.7126 13.107C55.9892 12.953 56.2662 12.7994 56.5465 12.6524C56.3823 13.0761 56.2198 13.5003 56.0619 13.9263C55.948 14.0076 55.8329 14.0873 55.7165 14.1648C55.4985 14.3098 55.2759 14.4449 55.0534 14.58C54.5604 14.8793 54.0677 15.1784 53.6261 15.5851C53.1961 15.9806 52.6829 16.2824 52.1693 16.5844C51.9219 16.7299 51.6745 16.8754 51.4362 17.0314C51.3536 17.0856 51.2708 17.1397 51.1881 17.1938L51.1879 17.1939L51.1878 17.194C50.6758 17.5286 50.1634 17.8635 49.6721 18.2274C48.7475 18.9124 48.6648 19.269 49.1351 20.3004C49.2212 20.4896 49.3142 20.6756 49.4073 20.8617C49.4976 21.0423 49.588 21.223 49.6721 21.4067C50.8804 24.049 50.2617 26.4228 48.5706 28.5937C47.8509 29.5173 46.7799 29.7686 45.6649 29.8206C45.5861 29.8242 45.5072 29.8255 45.4282 29.8258C45.3454 29.826 45.2626 29.8249 45.1797 29.8239H45.1796H45.1796H45.1795H45.1795H45.1795C45.1044 29.823 45.0294 29.822 44.9544 29.822C43.1861 29.6639 41.5224 29.2088 40.1251 28.0315C40.3458 27.6802 40.5557 27.3206 40.7576 26.9552C40.8083 26.9763 40.8632 26.9955 40.922 27.0127C41.3001 27.1227 41.691 27.1875 42.0817 27.2523L42.0818 27.2523C42.255 27.281 42.4281 27.3098 42.6001 27.3424L42.617 27.2317C42.6705 27.2317 42.7242 27.2332 42.7778 27.2347C42.8938 27.238 43.0099 27.2413 43.1245 27.2292C43.2521 27.2156 43.3823 27.2063 43.5132 27.197C44.0678 27.1577 44.6341 27.1175 45.0564 26.7373C46.4498 25.4831 47.138 23.902 46.8915 21.9863C46.7934 21.223 46.3942 21.074 45.791 21.5385C44.5244 22.514 43.2586 23.4904 42.0054 24.4835L42.119 24.2446C42.1341 24.2127 42.1506 24.1795 42.1678 24.1452C42.3158 23.8483 42.5062 23.4662 42.2088 23.0682C42.1267 23.1203 42.0444 23.172 41.9621 23.2237L41.9619 23.2238L41.9617 23.2239L41.9615 23.224L41.9607 23.2246L41.9606 23.2246C41.7399 23.3631 41.5193 23.5016 41.3045 23.6489C41.2609 23.6789 41.2307 23.7277 41.2002 23.777C41.1752 23.8173 41.1501 23.8579 41.1173 23.8887C40.9184 24.075 40.7199 24.2619 40.5215 24.4488C39.8304 25.0998 39.1393 25.7509 38.4271 26.3764ZM42.0054 24.4835C41.6082 25.3175 41.2023 26.1503 40.7576 26.9552C40.2122 26.7282 40.1363 26.2793 40.5837 25.7697C40.9636 25.3375 41.4092 24.9569 41.8602 24.5987L42.0054 24.4835ZM38.4271 26.3764C38.5012 26.5139 38.611 26.6521 38.7548 26.7961C39.184 27.2263 39.6451 27.6251 40.1086 28.0176L40.1251 28.0315C40.1034 28.0662 40.0815 28.1007 40.0596 28.1352C39.1552 29.5543 37.5196 29.8314 36.0207 28.8833C34.4461 27.8872 33.4917 26.4518 33.3426 24.5394C33.3176 24.2193 33.2706 23.8956 33.193 23.5816C33.156 23.432 33.0203 23.1911 32.9346 23.1872C32.7947 23.1808 32.6151 23.3003 32.5286 23.4261C32.1869 23.9228 31.8529 24.4257 31.5189 24.9287L31.5188 24.9287L31.5188 24.9287L31.5188 24.9287L31.5188 24.9287L31.5188 24.9288L31.5188 24.9288L31.5188 24.9288L31.5188 24.9288L31.5188 24.9288L31.5187 24.9288L31.5187 24.9288L31.5187 24.9288L31.5187 24.9288C30.875 25.8981 30.2314 26.8672 29.5336 27.7908C28.9236 28.5981 28.1298 29.2467 26.9717 29.1536C26.795 29.1394 26.6176 29.1324 26.4406 29.1255H26.4406H26.4406H26.4405H26.4405H26.4405H26.4405H26.4405H26.4405H26.4404H26.4404H26.4404H26.4404H26.4404C25.7299 29.0976 25.0234 29.07 24.3724 28.5747C22.9668 27.5053 22.1097 26.1428 22.01 24.0653C21.8998 22.5121 22.273 20.8432 23.2083 19.3403C23.5483 18.794 23.8703 18.2337 24.1923 17.6735L24.1923 17.6735L24.1923 17.6734C24.7418 16.7172 25.291 15.7616 25.9288 14.877C26.4998 14.0852 27.1934 13.3925 27.8868 12.7001L27.8868 12.7001C28.1731 12.4142 28.4592 12.1284 28.7367 11.8357C28.8046 11.7642 28.8714 11.6902 28.9384 11.616L28.9384 11.6159C29.1677 11.3621 29.3989 11.106 29.6802 10.9374C30.2268 10.6098 30.8477 10.4864 31.5265 10.5061C33.3137 10.5579 34.9094 11.1717 36.3479 12.3721C36.9937 12.9111 37.162 12.8661 37.4844 12.1423L37.4919 12.1256C37.5597 11.9733 37.6276 11.8209 37.6935 11.6676C38.1507 10.6036 38.2729 10.5339 39.391 10.7028C40.7338 10.9057 41.9133 12.4412 41.5963 13.7743C41.4134 14.5438 41.1173 15.2763 40.8212 16.0088C40.6893 16.3352 40.5573 16.6615 40.4354 16.9911C40.2861 17.3949 40.1379 17.7992 39.9897 18.2035L39.9895 18.2041L39.9893 18.2047L39.989 18.2054L39.9888 18.206L39.9886 18.2066L39.9883 18.2072L39.9881 18.2078L39.9879 18.2085L39.9877 18.2091L39.9874 18.2097L39.9872 18.2103C39.6489 19.1334 39.3106 20.0564 38.9586 20.9729C38.825 21.3207 38.6761 21.6614 38.5272 22.002L38.5272 22.0021L38.5272 22.0021L38.5272 22.0021L38.5271 22.0022C38.3301 22.4529 38.1332 22.9035 37.9721 23.3699C37.7019 24.152 37.4901 24.9653 37.3309 25.7869C37.2963 25.9658 37.3801 26.178 37.4639 26.3901C37.5022 26.4872 37.5405 26.5842 37.5675 26.6781C37.6532 26.6529 37.7453 26.6356 37.8374 26.6182C38.0372 26.5805 38.2371 26.5428 38.3711 26.4255L38.4271 26.3764ZM13.9026 35.1037C14.3589 35.1081 14.5885 34.7162 14.4744 34.2453C14.462 34.1932 14.4423 34.143 14.4226 34.0926L14.4226 34.0926C14.4154 34.0743 14.4082 34.056 14.4014 34.0376C13.9804 32.9014 13.9679 31.7368 14.1757 30.5599C14.2075 30.3793 14.2494 30.1999 14.2914 30.0207L14.2914 30.0207C14.3586 29.7336 14.4257 29.4468 14.4507 29.1557C14.5372 28.1553 14.8407 27.218 15.1554 26.2788C15.2791 25.9096 15.3979 25.5388 15.5168 25.168C15.6663 24.7012 15.8159 24.2346 15.9751 23.7712L16.0357 23.5946C16.4204 22.4731 16.8052 21.3515 17.2245 20.2431C17.7822 18.7693 18.3506 17.3014 19.0432 15.8806C19.5367 14.8683 19.9813 13.8313 20.426 12.7943C20.6463 12.2803 20.8667 11.7664 21.093 11.2555C21.2114 10.9875 21.354 10.7298 21.5004 10.4755C22.0664 9.49403 22.0707 9.49312 23.2332 9.24967L23.2452 9.24717C23.3715 9.22083 23.4971 9.19103 23.6226 9.16125L23.6227 9.16123L23.6228 9.16122L23.6228 9.1612L23.6229 9.16119L23.623 9.16118L23.623 9.16116L23.6231 9.16115L23.6232 9.16113L23.6232 9.16112L23.6233 9.1611L23.6234 9.16109L23.6234 9.16108L23.6235 9.16106L23.6235 9.16106L23.6235 9.16106L23.6236 9.16105L23.6236 9.16105L23.6236 9.16105L23.6236 9.16104L23.6236 9.16104L23.6236 9.16104L23.6237 9.16104L23.6237 9.16103L23.6237 9.16103L23.6237 9.16103C23.8154 9.11555 24.007 9.0701 24.2007 9.03698C25.1765 8.87002 26.1528 8.70624 27.1291 8.54247L27.1294 8.54241L27.1298 8.54235L27.1301 8.54229L27.1305 8.54223L27.1308 8.54217L27.1312 8.54211L27.1315 8.54205L27.1319 8.54199C27.8707 8.41804 28.6095 8.2941 29.3481 8.16879C30.7067 7.93852 32.0745 7.8126 33.4495 7.72588C34.1533 7.68178 34.8532 7.53498 35.5486 7.38912L35.5487 7.3891C35.6336 7.37128 35.7185 7.35348 35.8033 7.33588C36.4273 7.20653 36.6564 6.91599 36.7211 6.2918C36.7951 5.57549 36.6254 4.91259 36.3267 4.26292C36.0633 3.69066 35.6699 3.46431 35.0435 3.46039C33.9551 3.45288 32.8794 3.57322 31.8034 3.69359C31.4742 3.73041 31.145 3.76724 30.8154 3.80041C30.0595 3.87635 29.3051 3.9812 28.553 4.0934C26.7618 4.36091 24.9847 4.70486 23.2191 5.11543C22.6108 5.25716 21.9998 5.38779 21.3888 5.5184C20.3312 5.74449 19.2737 5.97054 18.2312 6.25407C15.1539 7.09091 12.0887 7.9684 9.1163 9.16094C7.2937 9.89194 5.4798 10.6283 3.75725 11.5783C2.89646 12.0531 2.09705 12.6018 1.36965 13.2907C0.226598 14.373 -0.140725 15.6675 0.0463194 17.1848C0.0506693 17.2211 0.0550192 17.2578 0.057919 17.2946C0.134283 18.2931 0.728767 18.979 1.43103 19.5885C1.70121 19.8237 2.10961 19.639 2.18259 19.273C2.20386 19.1657 2.21884 19.053 2.21159 18.9447C2.17293 18.397 2.41797 17.9506 2.68718 17.5067C3.07577 16.8669 3.61032 16.3725 4.20529 15.9462C5.75481 14.8365 7.4706 14.033 9.21393 13.3113C10.4455 12.8013 11.7091 12.369 12.972 11.9369L12.9721 11.9369C13.2912 11.8278 13.6102 11.7186 13.9287 11.6082C14.3549 11.4605 14.7931 11.3475 15.2313 11.2345L15.2313 11.2345C15.3889 11.1938 15.5465 11.1532 15.7035 11.1109C15.8378 11.0747 15.9935 11.256 15.9359 11.3897C15.7756 11.7611 15.6062 12.1285 15.4368 12.4957L15.3477 12.6891C14.4585 14.6176 13.738 16.6164 13.0187 18.6119L12.9398 18.8306C12.8285 19.1393 12.7165 19.4479 12.6046 19.7565L12.6045 19.7567L12.6045 19.757L12.6044 19.7572L12.6043 19.7574L12.6042 19.7577L12.6041 19.7579L12.604 19.7581L12.604 19.7583L12.6039 19.7586L12.6038 19.7588L12.6037 19.759L12.6036 19.7593L12.6035 19.7595C11.841 21.8619 11.078 23.9655 10.4836 26.1269C10.0926 27.5492 9.79827 28.9852 9.7712 30.4717C9.77941 30.6386 9.78913 30.8054 9.79885 30.9723C9.82118 31.3557 9.84352 31.7393 9.84757 32.1234C9.85385 32.6799 10.0762 33.1297 10.4812 33.4707L10.5294 33.5113L10.5295 33.5113C11.0419 33.9425 11.5593 34.3779 12.1235 34.7299C12.6518 35.0591 13.2912 35.0983 13.9026 35.1037ZM25.441 27.12C25.6786 27.6146 25.9024 27.7144 26.3425 27.4622C26.5722 27.3306 26.786 27.1489 26.9584 26.9447L27.0214 26.8702L27.1179 26.7563C27.5248 26.2762 27.9332 25.7944 28.2847 25.2706C28.9132 24.3339 29.5291 23.3877 30.1449 22.4414C30.6794 21.6202 31.2139 20.7991 31.7566 19.9842C32.9464 18.1977 34.1477 16.4196 35.3755 14.6626C35.6442 14.2782 35.6131 13.9656 35.3608 13.5992C34.9354 12.9813 34.2155 12.7904 33.6292 13.1322C32.457 13.8158 31.4805 14.7456 30.5567 15.7348C29.3309 17.0473 28.3311 18.5404 27.3891 20.0939C26.5138 21.5372 25.7592 23.0238 25.3622 24.7076C25.286 25.0309 25.2506 25.3675 25.2153 25.7041V25.7041C25.199 25.8586 25.1828 26.013 25.1626 26.1661L25.2533 26.1809C25.2585 26.2429 25.2627 26.305 25.2669 26.3671L25.2669 26.3674V26.3674V26.3675V26.3675V26.3675V26.3675V26.3675V26.3675V26.3676V26.3676V26.3676V26.3676V26.3676C25.2771 26.5188 25.2874 26.67 25.3114 26.8197C25.3236 26.8957 25.3626 26.9694 25.4013 27.0425L25.4013 27.0426C25.4149 27.0684 25.4286 27.0942 25.441 27.12ZM67.3059 21.8485C66.926 22.128 66.6877 22.0345 66.4891 21.674C66.1575 21.0716 65.9125 20.4912 66.2343 19.753C67.1 17.7684 68.1749 15.9369 69.7031 14.3994C69.7919 14.3102 69.877 14.2169 69.962 14.1238L69.962 14.1237C70.083 13.9911 70.2039 13.8587 70.3353 13.7377C70.4331 13.6476 70.5475 13.5761 70.6806 13.4929C70.7454 13.4524 70.8147 13.409 70.8887 13.3594C70.9256 13.4033 70.9665 13.4439 71.0058 13.4829C71.0903 13.5667 71.1677 13.6434 71.1826 13.7312C71.2087 13.8825 71.1386 14.0628 71.0758 14.2161C70.8976 14.6508 70.7204 15.0858 70.5431 15.5209L70.5425 15.5224L70.5424 15.5226L70.5423 15.5229L70.5421 15.5234C69.9603 16.9514 69.3784 18.3794 68.766 19.7938C68.4291 20.5714 68.0221 21.3212 67.3059 21.8485ZM85.5535 26.7775C84.5976 27.55 83.4025 27.3394 82.6034 26.2832C82.2741 25.848 82.1047 25.4022 82.3602 24.903C82.5784 24.4766 82.7882 24.0448 82.998 23.6131L82.9981 23.6129L82.9982 23.6127C83.3937 22.7989 83.789 21.9852 84.2406 21.208C85.2519 19.4677 86.2781 17.7278 87.445 16.1013C88.0262 15.291 88.7765 14.607 89.5216 13.9277C89.6914 13.7729 89.8609 13.6183 90.0281 13.4626C90.2407 13.2645 90.7091 13.1128 90.9396 13.2278C91.097 13.3063 91.1832 13.5559 91.275 13.8218C91.3169 13.9429 91.3599 14.0675 91.4113 14.1807C91.3652 14.5187 91.3255 14.8586 91.2858 15.1984L91.2858 15.1987L91.2858 15.1988C91.1968 15.9615 91.1079 16.7237 90.9454 17.4632C90.6728 18.7052 90.3591 19.9511 89.8889 21.11C89.6241 21.7625 89.2473 22.3598 88.8702 22.9575C88.676 23.2655 88.4816 23.5736 88.3024 23.8895C87.6234 25.0864 86.5927 25.9376 85.5535 26.7775ZM102.881 7.86924C102.067 7.9645 101.2 7.56748 100.796 6.79074C100.68 6.56815 100.657 6.26095 100.685 6.00324C100.827 4.68555 101.314 3.47113 101.8 2.25907C101.848 2.13881 101.896 2.01857 101.944 1.89826C102.132 1.4259 102.526 1.255 103.025 1.30493C103.997 1.35838 104.861 1.72619 105.593 2.36028C106.325 2.99481 106.462 3.59803 106.088 4.47382C105.584 5.65386 104.857 6.68192 103.847 7.47534C103.596 7.67283 103.307 7.79593 103.007 7.85039L102.881 7.86924ZM103.223 22.3022C104.078 19.7165 104.983 17.1476 105.897 14.5825C106.229 13.6511 106.589 12.7299 106.949 11.8087L106.95 11.8076L106.95 11.8067C107.211 11.1378 107.473 10.4688 107.724 9.79573C108.05 8.92068 107.81 8.65267 106.87 8.65022C105.752 8.64748 104.649 8.7958 103.546 8.94408C102.678 9.06084 101.809 9.17757 100.934 9.22053C100.396 9.24649 99.8549 9.24404 99.3174 9.21612C99.0216 9.20093 98.6277 9.16614 98.6345 8.76536C98.6389 8.47199 98.895 8.44821 99.1311 8.42628C99.1797 8.42176 99.2275 8.41733 99.272 8.41064C99.859 8.32299 100.446 8.23473 101.033 8.14647L101.035 8.14615L101.038 8.14563C101.652 8.05326 102.267 7.9609 102.881 7.86924C102.923 7.86429 102.965 7.85801 103.007 7.85039C103.731 7.74256 104.454 7.63578 105.178 7.53118C105.324 7.51018 105.47 7.48816 105.616 7.46613C106.274 7.36684 106.935 7.26719 107.596 7.25877C108.4 7.24799 108.885 6.8428 109.165 6.17745C109.588 5.17257 109.964 4.14515 110.307 3.10842C110.624 2.14763 110.79 1.99329 111.747 2.25787C111.832 2.28117 111.916 2.30374 112.001 2.32631L112.001 2.32636C112.661 2.50261 113.325 2.67976 113.844 3.21914C114.454 3.8551 114.766 4.52633 114.526 5.43714C114.333 6.17158 114.519 6.38029 115.238 6.39989C115.565 6.4087 115.892 6.4065 116.22 6.4043L116.22 6.4043C116.366 6.40332 116.512 6.40234 116.658 6.40234L116.658 6.24213C116.947 6.24213 117.236 6.24018 117.526 6.23823C118.283 6.23313 119.04 6.22803 119.796 6.25781C120.104 6.27005 120.496 6.38568 120.693 6.60077C121.313 7.27592 120.987 8.09658 120.053 8.23328C119.565 8.30464 119.069 8.32797 118.574 8.35129C118.393 8.35984 118.211 8.36838 118.03 8.37928C117.798 8.39308 117.567 8.40717 117.335 8.42127L117.334 8.42134C116.421 8.47681 115.509 8.53228 114.596 8.56938C113.849 8.59976 113.341 8.88295 113.036 9.62865C112.676 10.5084 112.298 11.3805 111.92 12.2525C110.886 14.6369 109.852 17.0208 109.192 19.5589C108.984 20.3572 108.698 21.1339 108.411 21.9111L108.411 21.9113C108.214 22.4472 108.016 22.9834 107.844 23.527C107.35 25.0895 106.888 26.6637 106.457 28.2452C106.033 29.8022 105.642 31.3689 105.252 32.9352L105.252 32.9354L105.082 33.6156C104.908 34.3123 104.746 35.0144 104.631 35.7223C104.603 35.8891 104.652 36.0683 104.701 36.2475L104.701 36.2477C104.723 36.329 104.745 36.4104 104.76 36.4906C104.83 36.4541 104.906 36.4227 104.981 36.3914C105.148 36.3227 105.314 36.2541 105.417 36.131C105.853 35.6097 106.28 35.0702 106.629 34.4872C107.766 32.5872 108.88 30.6724 109.978 28.7484C110.546 27.7529 111.101 26.7501 111.657 25.7473C111.803 25.4832 111.949 25.2192 112.096 24.9552C112.25 25.3935 112.45 25.8149 112.699 26.2175C112.616 26.5275 112.522 26.8327 112.408 27.1301C111.563 29.3305 110.626 31.4985 109.637 33.6371C109.036 34.9365 108.303 36.1785 107.564 37.4058C106.901 38.5077 106.024 39.3798 104.745 39.7791C103.948 40.028 103.221 40.0006 102.503 39.5768C100.532 38.4122 99.6848 36.6297 100.156 34.2505C100.577 32.134 101.039 30.0253 101.573 27.9353C102.741 26.6056 103.438 25.0011 103.456 23.0967C103.458 22.897 103.396 22.6882 103.326 22.4979C103.296 22.4148 103.262 22.3497 103.223 22.3022ZM103.223 22.3022C103.167 22.4735 103.111 22.6447 103.054 22.8161C102.501 24.5058 102.013 26.2142 101.573 27.9353C101.321 28.2221 101.047 28.4962 100.754 28.7577C99.5478 29.8314 97.816 29.8063 96.5057 28.8469C95.571 28.1628 94.7397 27.3392 94.3134 26.207C94.2081 25.9267 94.1388 25.6324 94.0696 25.3381C94.0378 25.203 94.006 25.0679 93.9707 24.9342C94.0896 23.3861 94.5304 21.9418 94.9915 20.5047C95.0798 20.2294 95.1678 19.9539 95.2558 19.6785C95.7494 18.134 96.243 16.5893 96.7861 15.0627C97.0475 14.3285 97.3673 13.6156 97.6871 12.9027L97.6872 12.9026C97.8292 12.5861 97.9711 12.2697 98.108 11.9515C98.1842 11.7742 98.2622 11.5977 98.3401 11.4212C98.4961 11.0682 98.652 10.7152 98.7938 10.3565C99.0688 9.66164 99.3245 9.4613 100.03 9.66639C100.671 9.85321 101.328 10.0879 101.886 10.4478C102.867 11.0804 103.037 11.9772 102.615 13.0562C102.261 13.963 101.893 14.8644 101.525 15.7658C100.912 17.265 100.3 18.7641 99.7512 20.2868C99.3006 21.5366 98.944 22.8211 98.5875 24.1056C98.4308 24.67 98.2741 25.2344 98.1094 25.7959C98.1062 25.8068 98.1027 25.8179 98.0992 25.8291C98.0814 25.8855 98.0627 25.9453 98.0732 25.9971C98.1158 26.2087 98.1658 26.4187 98.2158 26.6288L98.2158 26.629L98.2159 26.6292L98.2159 26.6294C98.2327 26.6999 98.2495 26.7705 98.266 26.8411C98.3386 26.8096 98.4168 26.7838 98.4949 26.7579C98.6636 26.7022 98.8324 26.6464 98.946 26.5336C99.1995 26.2825 99.4568 26.0348 99.7141 25.7871C100.73 24.8093 101.746 23.8309 102.535 22.6393C102.592 22.5541 102.654 22.471 102.725 22.3978C102.933 22.1813 103.099 22.1469 103.223 22.3022ZM112.699 26.2175C113.165 26.9708 113.8 27.6584 114.621 28.2684C115.827 29.1644 117.171 29.8314 118.78 29.7406C119.894 29.799 121.006 29.618 121.893 28.8413C122.655 28.1741 123.384 27.4424 124.006 26.6424C124.682 25.7738 125.315 24.8708 125.948 23.9676L125.948 23.9668C126.292 23.4755 126.637 22.9841 126.988 22.4982C127.888 21.2543 128.318 19.8077 128.749 18.3636L128.771 18.2873C128.807 18.1671 128.742 18.0158 128.676 17.8645C128.646 17.7946 128.615 17.7247 128.595 17.6579C128.543 17.6858 128.487 17.71 128.431 17.7342C128.311 17.7865 128.19 17.8387 128.112 17.9287C127.987 18.071 127.863 18.2132 127.739 18.3553L127.739 18.3556C126.922 19.2894 126.105 20.2233 125.327 21.1896C123.958 22.8912 122.567 24.5703 120.925 26.0126C119.941 26.8769 118.85 27.483 117.523 27.7077C115.985 27.968 115.305 26.917 115.135 25.7055C115.048 25.0733 115.114 24.4066 115.197 23.767C115.237 23.4613 115.407 23.0765 115.643 22.9167C115.968 22.6963 116.261 23.0059 116.501 23.2643C117.046 23.8496 117.71 24.2143 118.46 24.4947C119.052 24.7166 119.551 24.65 119.966 24.2609C120.481 23.7776 120.988 23.2536 121.364 22.6594C121.85 21.8902 122.241 21.0551 122.628 20.226L122.679 20.1169C123.593 18.1649 124.465 16.1965 124.959 14.0782C125.214 12.9873 125.082 11.9915 124.199 11.2823C123.75 10.9214 123.172 10.7067 122.616 10.5006L122.484 10.4513C122.11 10.3117 121.722 10.2113 121.334 10.1109C121.099 10.0502 120.865 9.98944 120.633 9.91999C119.983 9.72543 119.337 9.71152 118.8 10.1546C118.561 10.3513 118.32 10.5457 118.079 10.7403L118.079 10.7404C117.206 11.4434 116.331 12.1487 115.582 12.9686C113.604 15.1306 112.45 17.7698 111.892 20.6384C111.59 22.1955 111.638 23.6504 112.096 24.9552C112.352 24.493 112.61 24.0313 112.869 23.5706C112.903 23.509 112.985 23.4741 113.066 23.4393C113.103 23.4232 113.14 23.4071 113.173 23.3884C113.18 23.4278 113.192 23.4683 113.203 23.5089C113.227 23.5961 113.251 23.6834 113.234 23.7607C113.16 24.0844 113.094 24.4116 113.028 24.7389L113.028 24.7397C112.928 25.236 112.828 25.7325 112.699 26.2175ZM116.563 21.674C116.761 22.0345 117 22.128 117.38 21.8485C118.096 21.3212 118.503 20.5714 118.84 19.7938C119.452 18.3791 120.034 16.9508 120.616 15.5224C120.794 15.0868 120.971 14.6513 121.149 14.2161C121.212 14.0628 121.282 13.8825 121.256 13.7312C121.241 13.6434 121.164 13.5667 121.079 13.4829C121.04 13.4439 120.999 13.4033 120.962 13.3594C120.888 13.409 120.819 13.4524 120.754 13.4929C120.621 13.5761 120.507 13.6476 120.409 13.7377C120.278 13.8587 120.157 13.9912 120.036 14.1238C119.951 14.2169 119.866 14.3102 119.777 14.3994C118.249 15.9369 117.174 17.7684 116.308 19.753C115.986 20.4912 116.231 21.0716 116.563 21.674Z" fill="black"/>
</svg>
