<svg width="96" height="16" viewBox="0 0 96 16" fill="none" xmlns="http://www.w3.org/2000/svg">
<rect width="16" height="16" fill="white" fill-opacity="0.01"/>
<path fill-rule="evenodd" clip-rule="evenodd" d="M5.49723 4.8976L7.40227 1.03821C7.64683 0.542765 8.35332 0.542765 8.59788 1.03821L10.5029 4.8976L14.7632 5.5203C15.3098 5.6002 15.5276 6.27209 15.1319 6.65753L12.0498 9.65954L12.7771 13.9006C12.8706 14.4452 12.2989 14.8605 11.8098 14.6033L8.00007 12.5999L4.19038 14.6033C3.70129 14.8605 3.12959 14.4452 3.223 13.9006L3.95039 9.65954L0.868253 6.65753C0.472524 6.27209 0.690379 5.6002 1.23699 5.5203L5.49723 4.8976Z" fill="#FF642F"/>
<rect x="20" width="16" height="16" fill="white" fill-opacity="0.01"/>
<path fill-rule="evenodd" clip-rule="evenodd" d="M25.4972 4.8976L27.4023 1.03821C27.6468 0.542765 28.3533 0.542765 28.5979 1.03821L30.5029 4.8976L34.7632 5.5203C35.3098 5.6002 35.5276 6.27209 35.1319 6.65753L32.0498 9.65954L32.7771 13.9006C32.8706 14.4452 32.2989 14.8605 31.8098 14.6033L28.0001 12.5999L24.1904 14.6033C23.7013 14.8605 23.1296 14.4452 23.223 13.9006L23.9504 9.65954L20.8683 6.65753C20.4725 6.27209 20.6904 5.6002 21.237 5.5203L25.4972 4.8976Z" fill="#FF642F"/>
<rect x="40" width="16" height="16" fill="white" fill-opacity="0.01"/>
<path fill-rule="evenodd" clip-rule="evenodd" d="M45.4972 4.8976L47.4023 1.03821C47.6468 0.542765 48.3533 0.542765 48.5979 1.03821L50.5029 4.8976L54.7632 5.5203C55.3098 5.6002 55.5276 6.27209 55.1319 6.65753L52.0498 9.65954L52.7771 13.9006C52.8706 14.4452 52.2989 14.8605 51.8098 14.6033L48.0001 12.5999L44.1904 14.6033C43.7013 14.8605 43.1296 14.4452 43.223 13.9006L43.9504 9.65954L40.8683 6.65753C40.4725 6.27209 40.6904 5.6002 41.237 5.5203L45.4972 4.8976Z" fill="#FF642F"/>
<rect x="60" width="16" height="16" fill="white" fill-opacity="0.01"/>
<path fill-rule="evenodd" clip-rule="evenodd" d="M65.4972 4.8976L67.4023 1.03821C67.6468 0.542765 68.3533 0.542765 68.5979 1.03821L70.5029 4.8976L74.7632 5.5203C75.3098 5.6002 75.5276 6.27209 75.1319 6.65753L72.0498 9.65954L72.7771 13.9006C72.8706 14.4452 72.2989 14.8605 71.8098 14.6033L68.0001 12.5999L64.1904 14.6033C63.7013 14.8605 63.1296 14.4452 63.223 13.9006L63.9504 9.65954L60.8683 6.65753C60.4725 6.27209 60.6904 5.6002 61.237 5.5203L65.4972 4.8976Z" fill="#FF642F"/>
<rect x="80" width="16" height="16" fill="white" fill-opacity="0.01"/>
<path fill-rule="evenodd" clip-rule="evenodd" d="M85.4972 4.8976L87.4023 1.03821C87.6468 0.542765 88.3533 0.542765 88.5979 1.03821L90.5029 4.8976L94.7632 5.5203C95.3098 5.6002 95.5276 6.27209 95.1319 6.65753L92.0498 9.65954L92.7771 13.9006C92.8706 14.4452 92.2989 14.8605 91.8098 14.6033L88.0001 12.5999L84.1904 14.6033C83.7013 14.8605 83.1296 14.4452 83.223 13.9006L83.9504 9.65954L80.8683 6.65753C80.4725 6.27209 80.6904 5.6002 81.237 5.5203L85.4972 4.8976Z" fill="#FF642F"/>
</svg>
