<svg width="27" height="27" viewBox="0 0 27 27" fill="none" xmlns="http://www.w3.org/2000/svg">
<path fill-rule="evenodd" clip-rule="evenodd" d="M12 0C18.6274 0 24 5.37258 24 12C24 14.8334 23.018 17.4374 21.3758 19.4903L26.2761 24.3907C26.7968 24.9114 26.7968 25.7556 26.2761 26.2763C25.7554 26.797 24.9112 26.797 24.3905 26.2763L19.4902 21.3759C17.4373 23.0181 14.8333 24 12 24C5.37258 24 0 18.6274 0 12C0 5.37258 5.37258 0 12 0ZM18.4755 18.7216C16.7972 20.3388 14.5147 21.3333 12 21.3333C6.84534 21.3333 2.66667 17.1547 2.66667 12C2.66667 6.84534 6.84534 2.66667 12 2.66667C17.1547 2.66667 21.3333 6.84534 21.3333 12C21.3333 14.5148 20.3387 16.7973 18.7214 18.4756C18.6759 18.5106 18.6322 18.549 18.5905 18.5907C18.5488 18.6323 18.5105 18.6761 18.4755 18.7216Z" fill="black"/>
</svg>
