<svg width="20" height="20" viewBox="0 0 20 20" fill="none" xmlns="http://www.w3.org/2000/svg">
<rect x="0.00195312" width="20" height="20" fill="white" fill-opacity="0.01"/>
<path fill-rule="evenodd" clip-rule="evenodd" d="M9.17098 6.05932C9.23674 4.23482 10.387 2.61483 12.1062 1.95862C13.7166 1.34399 15.518 1.69246 16.779 2.82099C17.4558 2.57223 18.0977 2.23557 18.688 1.81916C19.3172 1.37534 20.1602 1.94919 19.978 2.69731C19.6926 3.86943 19.1204 4.94979 18.3157 5.84264C18.3281 5.97762 18.3346 6.11348 18.335 6.25013C18.335 16.133 8.79662 21.2099 0.430303 16.5619C-0.336932 16.1357 -0.00886577 14.9659 0.868126 15.0008C2.27363 15.0567 3.66496 14.7773 4.93014 14.1945C3.09335 13.0623 1.91723 11.5634 1.34025 9.7903C0.744521 7.95952 0.831475 6.03561 1.32847 4.20844C1.4788 3.65573 1.6316 3.23927 1.74016 2.99501C2.00322 2.40313 2.81139 2.32448 3.18364 2.85453C4.52688 4.76723 6.62286 5.9869 8.91289 6.2323L9.1681 6.25555L9.17098 6.05932ZM17.3647 4.38139L17.0799 4.48155L16.7919 4.57308C16.4781 4.66759 16.138 4.56933 15.9229 4.32201C15.1243 3.40381 13.8374 3.08181 12.7006 3.51574C11.5637 3.94966 10.8186 5.0472 10.835 6.27514V7.10848C10.835 7.5603 10.4749 7.92982 10.0233 7.94153C7.30598 8.01199 4.70995 6.94234 2.83838 5.03619C2.50918 6.4571 2.48511 7.92241 2.92511 9.2746C3.4893 11.0084 4.78084 12.416 7.00678 13.4053C7.60408 13.6708 7.67717 14.4892 7.13635 14.8563C6.20377 15.4893 5.18193 15.9644 4.11166 16.2699C10.511 17.9535 16.6683 13.7053 16.6683 6.2529C16.6677 6.07236 16.6504 5.89226 16.6165 5.71493C16.5643 5.44172 16.6518 5.16046 16.8499 4.96514C17.0355 4.78207 17.2074 4.58694 17.3647 4.38139Z" fill="#7F7F7F"/>
</svg>
